<svg width="46" height="46" viewBox="0 0 46 46" fill="none" xmlns="http://www.w3.org/2000/svg">
<circle cx="23" cy="23" r="23" fill="#006A8D"/>
<path d="M15.7601 26.25L18.3001 25.96C18.9101 25.89 19.5101 26.1 19.9401 26.53L21.7801 28.37C24.6101 26.93 26.9301 24.62 28.3701 21.78L26.5201 19.93C26.3073 19.7175 26.1455 19.4595 26.0468 19.1754C25.9481 18.8914 25.915 18.5887 25.9501 18.29L26.2401 15.77C26.3601 14.76 27.2101 14 28.2301 14H29.9601C31.0901 14 32.0301 14.94 31.9601 16.07C31.4301 24.61 24.6001 31.43 16.0701 31.96C14.9401 32.03 14.0001 31.09 14.0001 29.96V28.23C13.9901 27.22 14.7501 26.37 15.7601 26.25Z" fill="white"/>
</svg>
