<svg width="46" height="46" viewBox="0 0 46 46" fill="none" xmlns="http://www.w3.org/2000/svg">
<circle cx="23" cy="23" r="23" fill="#B92A0B"/>
<g clip-path="url(#clip0)">
<path d="M27.1248 30.8769C27.4424 31.1905 27.3907 31.7405 26.9959 31.9513C23.6566 33.7475 19.4022 33.2365 16.5827 30.4169C13.7638 27.5981 13.2522 23.3476 15.049 20.0043C15.2592 19.6135 15.8092 19.5618 16.1234 19.8754L21.1426 24.8947L22.3197 23.7176C22.2902 23.6055 22.2512 23.5027 22.2512 23.3818C22.2512 23.1099 22.3319 22.844 22.483 22.6179C22.6341 22.3917 22.8489 22.2155 23.1002 22.1114C23.3515 22.0073 23.628 21.9801 23.8947 22.0331C24.1615 22.0862 24.4065 22.2172 24.5988 22.4095C24.7911 22.6018 24.9221 22.8469 24.9752 23.1136C25.0282 23.3804 25.001 23.6569 24.8969 23.9082C24.7928 24.1594 24.6166 24.3742 24.3904 24.5253C24.1643 24.6764 23.8984 24.7571 23.6264 24.7571C23.5062 24.7571 23.4028 24.7188 23.2913 24.6886L22.1136 25.8663L27.1248 30.8769ZM35.999 24.0224C36.0042 24.1161 35.9903 24.2099 35.9582 24.2981C35.9261 24.3863 35.8763 24.467 35.812 24.5353C35.7477 24.6037 35.6701 24.6582 35.5841 24.6956C35.498 24.733 35.4052 24.7526 35.3114 24.753H33.9315C33.757 24.7525 33.5894 24.6855 33.4625 24.5658C33.3357 24.4461 33.2592 24.2825 33.2486 24.1084C32.9263 18.5431 28.457 14.0308 22.8958 13.7299C22.7211 13.7206 22.5567 13.6445 22.4367 13.5172C22.3167 13.3899 22.2503 13.2213 22.2512 13.0464V11.6887C22.2516 11.5948 22.2711 11.502 22.3085 11.4159C22.3459 11.3298 22.4004 11.2522 22.4688 11.1879C22.5371 11.1236 22.6178 11.0738 22.706 11.0417C22.7942 11.0096 22.888 10.9957 22.9818 11.001C29.9953 11.3704 35.6337 17.0088 35.999 24.0224ZM31.8734 24.0097C31.8798 24.1046 31.8667 24.1999 31.8349 24.2896C31.803 24.3793 31.7531 24.4615 31.6882 24.5312C31.6233 24.6009 31.5449 24.6565 31.4576 24.6946C31.3704 24.7328 31.2763 24.7527 31.1811 24.753H29.7972C29.6251 24.7518 29.4597 24.6863 29.3334 24.5694C29.2071 24.4525 29.1289 24.2926 29.1143 24.1212C28.8176 20.8121 26.1874 18.1524 22.8871 17.8811C22.7145 17.8687 22.5529 17.7914 22.4349 17.6647C22.3169 17.538 22.2513 17.3713 22.2512 17.1982V15.8183C22.2512 15.723 22.2708 15.6287 22.3088 15.5414C22.3468 15.454 22.4025 15.3754 22.4722 15.3105C22.542 15.2456 22.6244 15.1958 22.7142 15.1642C22.8041 15.1325 22.8995 15.1198 22.9946 15.1266C27.7264 15.4919 31.5122 19.2777 31.8734 24.0097Z" fill="white"/>
</g>
<defs>
<clipPath id="clip0">
<rect width="22" height="22" fill="white" transform="translate(14 11)"/>
</clipPath>
</defs>
</svg>
