<svg width="32" height="32" viewBox="0 0 32 32" fill="none" xmlns="http://www.w3.org/2000/svg">
<circle cx="16" cy="16" r="16" fill="#F7CCC2"/>
<path d="M24 9V8C24 7.45 23.55 7 23 7H21C20.45 7 20 7.45 20 8V9H19V13C19 13.55 19.45 14 20 14H21V21C21 22.1 20.1 23 19 23C17.9 23 17 22.1 17 21V11C17 8.79 15.21 7 13 7C10.79 7 9 8.79 9 11V18H8C7.45 18 7 18.45 7 19V23H8V24C8 24.55 8.45 25 9 25H11C11.55 25 12 24.55 12 24V23H13V19C13 18.45 12.55 18 12 18H11V11C11 9.9 11.9 9 13 9C14.1 9 15 9.9 15 11V21C15 23.21 16.79 25 19 25C21.21 25 23 23.21 23 21V14H24C24.55 14 25 13.55 25 13V9H24Z" fill="black"/>
</svg>
