<svg width="46" height="46" viewBox="0 0 46 46" fill="none" xmlns="http://www.w3.org/2000/svg">
<circle cx="23" cy="23" r="23" fill="#991299"/>
<path d="M35.0884 28.0499C34.7709 27.8479 34.4166 27.7109 34.0458 27.6468C33.675 27.5827 33.2952 27.5928 32.9284 27.6766C32.4642 27.8003 32.0371 28.0352 31.6839 28.361L28.2439 26.3699C28.7857 25.0314 28.8357 23.5442 28.3849 22.1724C27.9341 20.8006 27.0118 19.6328 25.7817 18.8766L25.6839 18.8143C25.0194 18.4393 24.2892 18.195 23.5328 18.0943V14.7166C24.2407 14.5038 24.8393 14.0262 25.2039 13.3832C25.5966 12.7185 25.7114 11.9257 25.5233 11.1769C25.3353 10.4281 24.8596 9.7836 24.1995 9.38323C23.8779 9.19508 23.522 9.07301 23.1526 9.02416C22.7832 8.97532 22.4078 9.00069 22.0484 9.09878C21.6778 9.19326 21.3297 9.36061 21.0245 9.59106C20.7192 9.82151 20.463 10.1104 20.2706 10.441C19.889 11.1025 19.7805 11.8868 19.968 12.6271C20.1556 13.3675 20.6245 14.0054 21.2751 14.4054C21.4791 14.5387 21.7004 14.6434 21.9328 14.7166V18.0943C21.0374 18.2166 20.1821 18.5431 19.433 19.0486C18.6839 19.5542 18.0612 20.2252 17.6128 21.0099C17.1489 21.8119 16.8742 22.7092 16.8095 23.6334C16.7448 24.5576 16.8919 25.4844 17.2395 26.3432L13.6839 28.3788C13.5592 28.2591 13.4255 28.1491 13.2839 28.0499C12.9584 27.8647 12.5996 27.7456 12.228 27.6995C11.8563 27.6533 11.4792 27.681 11.1183 27.7809C10.7574 27.8809 10.4198 28.0511 10.1249 28.2818C9.82989 28.5125 9.58339 28.7992 9.3995 29.1254C9.01551 29.7838 8.90285 30.5658 9.08535 31.3057C9.26785 32.0457 9.7312 32.6856 10.3773 33.0899C10.8201 33.3565 11.327 33.4978 11.8439 33.4988C12.078 33.5004 12.3112 33.4705 12.5373 33.4099C13.2763 33.2193 13.9098 32.7439 14.2996 32.0878C14.6893 31.4316 14.8035 30.6478 14.6173 29.9077V29.7566L18.0662 27.7654C18.5284 28.3707 19.0979 28.8859 19.7462 29.2854C20.9889 30.069 22.4837 30.3489 23.9257 30.0681C25.3677 29.7873 26.6483 28.9669 27.5062 27.7743L30.9106 29.7388C30.7501 30.345 30.7888 30.9868 31.0209 31.5694C31.2529 32.1519 31.6661 32.6445 32.1995 32.9743C32.8456 33.3534 33.6157 33.4606 34.3407 33.2722C35.0657 33.0839 35.6863 32.6155 36.0662 31.9699C36.4366 31.3157 36.5417 30.5442 36.3597 29.8147C36.1778 29.0853 35.7227 28.4535 35.0884 28.0499Z" fill="white"/>
</svg>
