<svg width="46" height="46" viewBox="0 0 46 46" fill="none" xmlns="http://www.w3.org/2000/svg">
<circle cx="23" cy="23" r="23" fill="#4D9712"/>
<path d="M22.1191 22.0842V13.3751C22.1191 13.0104 22.2645 12.6606 22.5233 12.4028C22.7821 12.1449 23.1331 12 23.4991 12C23.8651 12 24.2161 12.1449 24.4749 12.4028C24.7337 12.6606 24.8791 13.0104 24.8791 13.3751V22.0842C24.8791 22.4489 24.7337 22.7986 24.4749 23.0565C24.2161 23.3144 23.8651 23.4593 23.4991 23.4593C23.1331 23.4593 22.7821 23.3144 22.5233 23.0565C22.2645 22.7986 22.1191 22.4489 22.1191 22.0842ZM29.7739 12.9371C29.4674 12.7379 29.0939 12.6683 28.7358 12.7434C28.3776 12.8186 28.0641 13.0324 27.8642 13.3379C27.6643 13.6434 27.5943 14.0155 27.6698 14.3724C27.7452 14.7293 27.9598 15.0417 28.2664 15.2409C29.8457 16.2648 31.0507 17.7699 31.7017 19.5318C32.3527 21.2936 32.4149 23.218 31.879 25.018C31.3431 26.8179 30.2378 28.3971 28.7279 29.5202C27.2179 30.6432 25.3842 31.2499 23.5 31.2499C21.6158 31.2499 19.7821 30.6432 18.2721 29.5202C16.7622 28.3971 15.6569 26.8179 15.121 25.018C14.5851 23.218 14.6473 21.2936 15.2983 19.5318C15.9493 17.7699 17.1543 16.2648 18.7336 15.2409C19.0402 15.0417 19.2548 14.7293 19.3303 14.3724C19.4057 14.0155 19.3358 13.6434 19.1359 13.3379C18.936 13.0324 18.6224 12.8185 18.2643 12.7433C17.9061 12.6681 17.5327 12.7378 17.2261 12.937C15.1485 14.2846 13.5636 16.2651 12.7075 18.5833C11.8514 20.9015 11.77 23.4333 12.4754 25.8014C13.1807 28.1694 14.6351 30.247 16.6218 31.7244C18.6085 33.2018 21.0211 34 23.5 34C25.9789 34 28.3915 33.2018 30.3782 31.7244C32.3649 30.247 33.8193 28.1694 34.5246 25.8014C35.23 23.4333 35.1486 20.9015 34.2925 18.5833C33.4364 16.2651 31.8515 14.2848 29.7739 12.9371Z" fill="white"/>
</svg>
