<svg width="75" height="76" viewBox="0 0 75 76" fill="none" xmlns="http://www.w3.org/2000/svg">
<circle cx="37.5" cy="38.047" r="37.5" fill="#C2DEF7"/>
<path d="M32.2401 34.4927L31.0157 23.7494L31.0122 23.6141C31.0122 21.9878 32.268 20.6689 33.8203 20.6689C35.2192 20.6689 36.5151 21.4372 37.2686 22.7452L37.4203 23.0397L42.557 34.1799L49.4587 33.9659C50.0546 33.9484 50.6479 34.0542 51.2047 34.2774C51.7616 34.5006 52.271 34.8367 52.7038 35.2665C53.1367 35.6964 53.4845 36.2115 53.7274 36.7825C53.9702 37.3534 54.1034 37.969 54.1192 38.5939L54.1209 38.7147C54.1198 39.3417 54.0005 39.9624 53.77 40.541C53.5394 41.1196 53.2021 41.6447 52.7775 42.0861C52.3529 42.5276 51.8492 42.8766 51.2955 43.1133C50.7419 43.35 50.149 43.4696 49.5512 43.4653L42.6389 43.2531L37.4203 54.5726C37.0931 55.2826 36.5815 55.8815 35.9445 56.3005C35.3074 56.7196 34.5706 56.9417 33.8186 56.9415C32.268 56.9415 31.0122 55.6244 31.0122 53.958L31.0244 53.7421L32.2576 42.9348L28.5389 42.8196L28.068 44.1659C27.8293 44.8511 27.3955 45.4427 26.8256 45.8609C26.2556 46.279 25.5769 46.5034 24.8814 46.5037C23.3535 46.5037 22.1151 45.2049 22.1151 43.6007V42.2104L21.8465 42.1519C21.0943 41.9862 20.4193 41.5541 19.9349 40.9283C19.4504 40.3024 19.186 39.5208 19.186 38.7147C19.186 37.9086 19.4504 37.127 19.9349 36.5011C20.4193 35.8752 21.0943 35.4432 21.8465 35.2775L22.1169 35.2189V33.8287C22.1169 32.3598 23.1581 31.1305 24.618 30.9403L24.8814 30.9257C26.1808 30.9257 27.3634 31.7049 27.9599 32.9872L28.0698 33.2616L28.5407 34.608L32.2384 34.4946L32.2401 34.4927ZM33.8203 23.4128C33.7157 23.4128 33.6302 23.5025 33.6285 23.572L35.1756 37.1488L26.7337 37.4067L25.6384 34.2696L25.5826 34.125C25.4517 33.847 25.1814 33.6677 24.9651 33.6659L24.8639 33.6696C24.8279 33.6744 24.7947 33.6929 24.7707 33.7215C24.7466 33.7501 24.7333 33.7869 24.7331 33.825L24.7349 37.447L22.3802 37.9628C22.2152 37.9982 22.067 38.0923 21.9605 38.2291C21.854 38.366 21.7959 38.5371 21.7959 38.7138C21.7959 38.8904 21.854 39.0616 21.9605 39.1984C22.067 39.3352 22.2152 39.4293 22.3802 39.4647L24.7349 39.9787V43.6007C24.7349 43.6866 24.8012 43.758 24.8831 43.758C25.0426 43.758 25.1983 43.7066 25.329 43.6107C25.4598 43.5148 25.5592 43.3791 25.6139 43.222L26.7302 40.0189L35.1965 40.2769L33.632 53.9433V53.9982C33.632 54.108 33.7157 54.1958 33.8203 54.1958C34.0804 54.1958 34.3352 54.1189 34.5554 53.9739C34.7757 53.829 34.9526 53.6218 35.0657 53.3763L41.0221 40.4561L49.593 40.7196C50.65 40.7196 51.5064 39.8214 51.5064 38.733V38.6543C51.4989 38.3908 51.442 38.1313 51.3389 37.8908C51.2358 37.6503 51.0886 37.4335 50.9055 37.2528C50.7225 37.072 50.5073 36.9309 50.2722 36.8374C50.0371 36.7439 49.7868 36.6999 49.5355 36.708L40.9401 36.9714L35.0953 24.2909L35.0029 24.1098C34.8795 23.8969 34.7058 23.7209 34.4987 23.5988C34.2916 23.4768 34.0579 23.4127 33.8203 23.4128Z" fill="black"/>
</svg>
