<svg width="35" height="14" viewBox="0 0 35 14" fill="none" xmlns="http://www.w3.org/2000/svg">
<path d="M11.86 9.84C11.8867 11.1467 11.8067 12.5333 11.62 14H0.6L0.48 13.36C0.986667 13.0133 1.55333 12.7 2.18 12.42V2.04L0.68 1.82L0.7 0.759999H11.76L11.78 1.22C11.78 2.44667 11.6533 3.64 11.4 4.8H9.4L9.04 2.76L5.8 2.54V6.58L9.98 6.24V8.4L5.8 8.22V12.14L9.16 11.88L9.88 9.68L11.86 9.84ZM27.3009 12.94L27.2809 14H20.5009L20.3809 13.36C20.7543 13.0933 21.2876 12.7933 21.9809 12.46L21.2809 10.56H16.8809L16.0809 12.66L17.8009 12.94L17.7809 14H12.1809L12.0609 13.36C12.5276 13.04 13.0876 12.7333 13.7409 12.44L18.0209 1.9L17.7209 1.08L20.8409 0.279999L25.8609 12.72L27.3009 12.94ZM20.6409 8.88L19.0809 4.68L17.5009 8.88H20.6409ZM34.0653 12.94L34.0453 14H27.0453L26.9253 13.36C27.432 13.0133 27.9986 12.7 28.6253 12.42V2.06L27.0853 1.82L27.1053 0.759999H33.8253L33.9453 1.4C33.4653 1.74667 32.8986 2.06 32.2453 2.34V12.64L34.0653 12.94Z" fill="black"/>
</svg>
