<svg width="18" height="21" viewBox="0 0 18 21" fill="none" xmlns="http://www.w3.org/2000/svg">
<path d="M7.5 10.9425L5.5575 9L4.5 10.0575L7.5 13.0575L13.5 7.0575L12.4425 6L7.5 10.9425Z" fill="black"/>
<path d="M9 21L4.368 18.5302C3.0475 17.8277 1.94323 16.7789 1.17369 15.4963C0.40416 14.2137 -0.0015848 12.7457 4.65193e-06 11.25V1.5C0.000401759 1.1023 0.158565 0.720996 0.439783 0.439778C0.721001 0.15856 1.1023 0.000397107 1.5 0H16.5C16.8977 0.000397107 17.279 0.15856 17.5602 0.439778C17.8414 0.720996 17.9996 1.1023 18 1.5V11.25C18.0016 12.7457 17.5958 14.2137 16.8263 15.4963C16.0568 16.7789 14.9525 17.8277 13.632 18.5302L9 21ZM1.5 1.5V11.25C1.49876 12.4738 1.83083 13.6749 2.46058 14.7243C3.09032 15.7737 3.99396 16.6318 5.0745 17.2065L9 19.2997L12.9255 17.2072C14.0062 16.6325 14.9099 15.7743 15.5396 14.7248C16.1694 13.6752 16.5014 12.474 16.5 11.25V1.5H1.5Z" fill="black"/>
</svg>
