<svg width="32" height="32" viewBox="0 0 32 32" fill="none" xmlns="http://www.w3.org/2000/svg">
<circle cx="16" cy="16" r="16" fill="#D4A1EA"/>
<path d="M21.8333 8.50001C20.455 8.50001 19.3333 9.62167 19.3333 11C19.3333 11.4183 19.4467 11.8067 19.6283 12.1542L18.6983 13.2392C18.1482 12.8655 17.4984 12.666 16.8333 12.6667C16.2175 12.6667 15.6458 12.8467 15.15 13.1383L13.9717 11.96C14.2057 11.5387 14.3301 11.0653 14.3333 10.5833C14.3333 8.97501 13.025 7.66667 11.4167 7.66667C9.80833 7.66667 8.5 8.97501 8.5 10.5833C8.5 12.1917 9.80833 13.5 11.4167 13.5C11.9175 13.5 12.3817 13.3617 12.7933 13.1383L13.9717 14.3167C13.6664 14.8254 13.5035 15.4068 13.5 16C13.5 16.8308 13.8167 17.5825 14.3208 18.1675L12.9108 19.5775L12.9317 19.5983C12.591 19.4263 12.215 19.3356 11.8333 19.3333C10.455 19.3333 9.33333 20.455 9.33333 21.8333C9.33333 23.2117 10.455 24.3333 11.8333 24.3333C13.2117 24.3333 14.3333 23.2117 14.3333 21.8333C14.3333 21.4367 14.2325 21.0675 14.0683 20.735L14.0892 20.7558L15.7175 19.1275C16.0683 19.2525 16.44 19.3333 16.8333 19.3333C18.6717 19.3333 20.1667 17.8383 20.1667 16C20.1631 15.4823 20.0378 14.9728 19.8008 14.5125L20.845 13.2942C21.1483 13.4258 21.4817 13.5 21.8333 13.5C23.2117 13.5 24.3333 12.3783 24.3333 11C24.3333 9.62167 23.2117 8.50001 21.8333 8.50001ZM11.8333 22.6667C11.6123 22.6667 11.4004 22.5789 11.2441 22.4226C11.0878 22.2663 11 22.0544 11 21.8333C11 21.6123 11.0878 21.4004 11.2441 21.2441C11.4004 21.0878 11.6123 21 11.8333 21C12.0543 21 12.2663 21.0878 12.4226 21.2441C12.5789 21.4004 12.6667 21.6123 12.6667 21.8333C12.6667 22.0544 12.5789 22.2663 12.4226 22.4226C12.2663 22.5789 12.0543 22.6667 11.8333 22.6667ZM10.1667 10.5833C10.1667 9.89417 10.7275 9.33334 11.4167 9.33334C12.1058 9.33334 12.6667 9.89417 12.6667 10.5833C12.6667 11.2725 12.1058 11.8333 11.4167 11.8333C10.7275 11.8333 10.1667 11.2725 10.1667 10.5833ZM16.8333 17.6667C15.9142 17.6667 15.1667 16.9192 15.1667 16C15.1667 15.0808 15.9142 14.3333 16.8333 14.3333C17.7525 14.3333 18.5 15.0808 18.5 16C18.5 16.9192 17.7525 17.6667 16.8333 17.6667ZM21.8333 11.8333C21.6123 11.8333 21.4004 11.7455 21.2441 11.5893C21.0878 11.433 21 11.221 21 11C21 10.779 21.0878 10.567 21.2441 10.4107C21.4004 10.2545 21.6123 10.1667 21.8333 10.1667C22.0543 10.1667 22.2663 10.2545 22.4226 10.4107C22.5789 10.567 22.6667 10.779 22.6667 11C22.6667 11.221 22.5789 11.433 22.4226 11.5893C22.2663 11.7455 22.0543 11.8333 21.8333 11.8333Z" fill="black"/>
</svg>
