<svg width="32" height="32" viewBox="0 0 32 32" fill="none" xmlns="http://www.w3.org/2000/svg">
<circle cx="16" cy="16" r="16" fill="#F7F6C2"/>
<path d="M16.2951 5C13.6751 5 11.2651 5.93 9.37509 7.47C9.26511 7.55804 9.17497 7.66832 9.11058 7.79362C9.04618 7.91892 9.00899 8.05641 9.00144 8.19709C8.99389 8.33776 9.01614 8.47845 9.06675 8.60992C9.11735 8.7414 9.19517 8.86069 9.29509 8.96C9.65509 9.32 10.2251 9.35 10.6151 9.03C12.1551 7.76 14.1451 7 16.2951 7C18.4451 7 20.4351 7.76 21.9851 9.03C22.3751 9.35 22.9451 9.32 23.3051 8.96C23.7251 8.54 23.6851 7.85 23.2251 7.47C21.3251 5.93 18.9151 5 16.2951 5ZM19.2951 14H13.2951C12.7451 14 12.2951 14.45 12.2951 15V25C12.2951 25.55 12.7451 26 13.2951 26H19.2851C19.8351 26 20.2851 25.55 20.2851 25L20.2951 15C20.2951 14.45 19.8451 14 19.2951 14ZM19.2951 24H13.2951V16H19.2951V24Z" fill="black"/>
</svg>
