<svg width="39" height="38" viewBox="0 0 39 38" fill="none" xmlns="http://www.w3.org/2000/svg">
<path fill-rule="evenodd" clip-rule="evenodd" d="M39 18.593C39 23.5242 36.9455 28.2534 33.2886 31.7403C29.6316 35.2271 24.6717 37.1861 19.5 37.1861C14.3283 37.1861 9.36838 35.2271 5.71142 31.7403C2.05446 28.2534 0 23.5242 0 18.593C0 13.6618 2.05446 8.93264 5.71142 5.44577C9.36838 1.9589 14.3283 0 19.5 0C24.6717 0 29.6316 1.9589 33.2886 5.44577C36.9455 8.93264 39 13.6618 39 18.593ZM20.7188 9.29651C20.7188 8.98831 20.5903 8.69274 20.3618 8.47481C20.1332 8.25688 19.8232 8.13445 19.5 8.13445C19.1768 8.13445 18.8668 8.25688 18.6382 8.47481C18.4097 8.69274 18.2812 8.98831 18.2812 9.29651V17.431H9.75C9.42677 17.431 9.11677 17.5534 8.88821 17.7713C8.65965 17.9893 8.53125 18.2848 8.53125 18.593C8.53125 18.9012 8.65965 19.1968 8.88821 19.4147C9.11677 19.6327 9.42677 19.7551 9.75 19.7551H18.2812V27.8895C18.2812 28.1977 18.4097 28.4933 18.6382 28.7112C18.8668 28.9292 19.1768 29.0516 19.5 29.0516C19.8232 29.0516 20.1332 28.9292 20.3618 28.7112C20.5903 28.4933 20.7188 28.1977 20.7188 27.8895V19.7551H29.25C29.5732 19.7551 29.8832 19.6327 30.1118 19.4147C30.3403 19.1968 30.4688 18.9012 30.4688 18.593C30.4688 18.2848 30.3403 17.9893 30.1118 17.7713C29.8832 17.5534 29.5732 17.431 29.25 17.431H20.7188V9.29651Z" fill="white"/>
</svg>
