<svg width="43" height="41" viewBox="0 0 43 41" fill="none" xmlns="http://www.w3.org/2000/svg">
<ellipse cx="21.5" cy="20.5" rx="21.5" ry="20.5" fill="#F7CCC2"/>
<path d="M28.6158 22.494C29.5583 22.494 30.3872 22.9737 30.8754 23.7023H23.4743C22.794 23.7023 22.1669 23.927 21.6618 24.3065H14.7175C14.5985 24.3063 14.4806 24.3296 14.3705 24.3751C14.2605 24.4206 14.1606 24.4874 14.0764 24.5715C13.9922 24.6557 13.9254 24.7557 13.88 24.8657C13.8345 24.9757 13.8111 25.0937 13.8113 25.2127V25.9099C13.8113 26.5564 14.0433 27.1823 14.4638 27.6741C15.7869 29.2244 17.7674 30.1101 20.4535 30.3082V31.5565C20.4535 31.751 20.4716 31.9431 20.5079 32.1268C17.2732 31.9226 14.7804 30.8387 13.0851 28.8522C12.3847 28.0319 12 26.9886 12 25.9099V25.2115C12 24.4908 12.2863 23.7995 12.7959 23.2899C13.3056 22.7803 13.9968 22.494 14.7175 22.494H28.6158ZM21.6618 8C22.4552 8 23.2409 8.15627 23.9739 8.45989C24.7069 8.76352 25.3729 9.20854 25.9339 9.76956C26.495 10.3306 26.94 10.9966 27.2436 11.7296C27.5472 12.4626 27.7035 13.2483 27.7035 14.0417C27.7035 14.8351 27.5472 15.6207 27.2436 16.3537C26.94 17.0867 26.495 17.7527 25.9339 18.3138C25.3729 18.8748 24.7069 19.3198 23.9739 19.6234C23.2409 19.9271 22.4552 20.0833 21.6618 20.0833C20.0595 20.0833 18.5228 19.4468 17.3897 18.3138C16.2567 17.1807 15.6202 15.644 15.6202 14.0417C15.6202 12.4393 16.2567 10.9026 17.3897 9.76956C18.5228 8.63653 20.0595 8 21.6618 8ZM21.6618 9.8125C21.1065 9.8125 20.5565 9.92189 20.0434 10.1344C19.5303 10.347 19.0641 10.6585 18.6714 11.0512C18.2786 11.4439 17.9671 11.9101 17.7546 12.4232C17.5421 12.9363 17.4327 13.4863 17.4327 14.0417C17.4327 14.597 17.5421 15.147 17.7546 15.6601C17.9671 16.1732 18.2786 16.6394 18.6714 17.0321C19.0641 17.4249 19.5303 17.7364 20.0434 17.9489C20.5565 18.1614 21.1065 18.2708 21.6618 18.2708C22.7835 18.2708 23.8592 17.8253 24.6523 17.0321C25.4454 16.239 25.891 15.1633 25.891 14.0417C25.891 12.92 25.4454 11.8443 24.6523 11.0512C23.8592 10.2581 22.7835 9.8125 21.6618 9.8125ZM21.6618 26.7231C21.6618 26.2424 21.8528 25.7814 22.1927 25.4415C22.5326 25.1016 22.9936 24.9106 23.4743 24.9106H33.141C33.6217 24.9106 34.0827 25.1016 34.4226 25.4415C34.7625 25.7814 34.9535 26.2424 34.9535 26.7231V31.5565C34.9535 32.0372 34.7625 32.4982 34.4226 32.8381C34.0827 33.178 33.6217 33.369 33.141 33.369H23.4743C22.9936 33.369 22.5326 33.178 22.1927 32.8381C21.8528 32.4982 21.6618 32.0372 21.6618 31.5565V26.7231ZM33.7452 27.3273C33.4247 27.3273 33.1173 27.2 32.8907 26.9734C32.6641 26.7468 32.5368 26.4394 32.5368 26.119H31.3285C31.3285 26.7599 31.5831 27.3746 32.0363 27.8278C32.4895 28.281 33.1042 28.5356 33.7452 28.5356V27.3273ZM33.7452 29.744C33.1042 29.744 32.4895 29.9986 32.0363 30.4518C31.5831 30.905 31.3285 31.5197 31.3285 32.1606H32.5368C32.5368 31.8402 32.6641 31.5328 32.8907 31.3062C33.1173 31.0796 33.4247 30.9523 33.7452 30.9523V29.744ZM24.0785 26.119C24.0785 26.4394 23.9512 26.7468 23.7246 26.9734C23.498 27.2 23.1906 27.3273 22.8702 27.3273V28.5356C23.5111 28.5356 24.1258 28.281 24.579 27.8278C25.0322 27.3746 25.2868 26.7599 25.2868 26.119H24.0785ZM25.2868 32.1606C25.2868 31.5197 25.0322 30.905 24.579 30.4518C24.1258 29.9986 23.5111 29.744 22.8702 29.744V30.9523C23.1906 30.9523 23.498 31.0796 23.7246 31.3062C23.9512 31.5328 24.0785 31.8402 24.0785 32.1606H25.2868ZM30.4222 29.1398C30.4222 28.579 30.1995 28.0411 29.8029 27.6446C29.4063 27.248 28.8685 27.0252 28.3077 27.0252C27.7468 27.0252 27.209 27.248 26.8124 27.6446C26.4159 28.0411 26.1931 28.579 26.1931 29.1398C26.1931 29.7006 26.4159 30.2385 26.8124 30.635C27.209 31.0316 27.7468 31.2544 28.3077 31.2544C28.8685 31.2544 29.4063 31.0316 29.8029 30.635C30.1995 30.2385 30.4222 29.7006 30.4222 29.1398Z" fill="black"/>
</svg>
