<svg width="31" height="13" viewBox="0 0 31 13" fill="none" xmlns="http://www.w3.org/2000/svg">
<path d="M10.674 9.256C10.698 10.432 10.626 11.68 10.458 13H0.54L0.432 12.424C0.888 12.112 1.398 11.83 1.962 11.578V2.236L0.612 2.038L0.63 1.084H10.584L10.602 1.498C10.602 2.602 10.488 3.676 10.26 4.72H8.46L8.136 2.884L5.22 2.686V6.322L8.982 6.016V7.96L5.22 7.798V11.326L8.244 11.092L8.892 9.112L10.674 9.256ZM24.5708 12.046L24.5528 13H18.4508L18.3428 12.424C18.6788 12.184 19.1588 11.914 19.7828 11.614L19.1528 9.904H15.1928L14.4728 11.794L16.0208 12.046L16.0028 13H10.9628L10.8548 12.424C11.2748 12.136 11.7788 11.86 12.3668 11.596L16.2188 2.11L15.9488 1.372L18.7568 0.651999L23.2748 11.848L24.5708 12.046ZM18.5768 8.392L17.1728 4.612L15.7508 8.392H18.5768ZM30.6588 12.046L30.6408 13H24.3408L24.2328 12.424C24.6888 12.112 25.1988 11.83 25.7628 11.578V2.254L24.3768 2.038L24.3948 1.084H30.4428L30.5508 1.66C30.1188 1.972 29.6088 2.254 29.0208 2.506V11.776L30.6588 12.046Z" fill="black"/>
</svg>
