<svg width="21" height="15" viewBox="0 0 21 15" fill="none" xmlns="http://www.w3.org/2000/svg">
<path d="M20.4834 6.53349C18.2416 2.18726 14.8528 0 10.31 0C5.76482 0 2.3784 2.18726 0.136557 6.53567C0.0466357 6.71091 0 6.90229 0 7.09609C0 7.28988 0.0466357 7.48127 0.136557 7.65651C2.3784 12.0027 5.76718 14.19 10.31 14.19C14.8552 14.19 18.2416 12.0027 20.4834 7.65433C20.6655 7.30176 20.6655 6.8926 20.4834 6.53349ZM10.31 12.623C6.49555 12.623 3.7027 10.8427 1.73281 7.095C3.7027 3.34727 6.49555 1.56699 10.31 1.56699C14.1244 1.56699 16.9173 3.34727 18.8872 7.095C16.9197 10.8427 14.1268 12.623 10.31 12.623ZM10.2154 3.26457C7.9168 3.26457 6.05333 4.97956 6.05333 7.095C6.05333 9.21044 7.9168 10.9254 10.2154 10.9254C12.514 10.9254 14.3775 9.21044 14.3775 7.095C14.3775 4.97956 12.514 3.26457 10.2154 3.26457ZM10.2154 9.53255C8.75158 9.53255 7.56681 8.44218 7.56681 7.095C7.56681 5.74782 8.75158 4.65745 10.2154 4.65745C11.6792 4.65745 12.864 5.74782 12.864 7.095C12.864 8.44218 11.6792 9.53255 10.2154 9.53255Z" fill="#C3BABA"/>
</svg>
