<svg width="43" height="41" viewBox="0 0 43 41" fill="none" xmlns="http://www.w3.org/2000/svg">
<ellipse cx="21.5" cy="20.5" rx="21.5" ry="20.5" fill="#C2DEF7"/>
<path d="M20.5 20.9425L18.5575 19L17.5 20.0575L20.5 23.0575L26.5 17.0575L25.4425 16L20.5 20.9425Z" fill="black"/>
<path d="M22 31L17.368 28.5302C16.0475 27.8277 14.9432 26.7789 14.1737 25.4963C13.4042 24.2137 12.9984 22.7457 13 21.25V11.5C13.0004 11.1023 13.1586 10.721 13.4398 10.4398C13.721 10.1586 14.1023 10.0004 14.5 10H29.5C29.8977 10.0004 30.279 10.1586 30.5602 10.4398C30.8414 10.721 30.9996 11.1023 31 11.5V21.25C31.0016 22.7457 30.5958 24.2137 29.8263 25.4963C29.0568 26.7789 27.9525 27.8277 26.632 28.5302L22 31ZM14.5 11.5V21.25C14.4988 22.4738 14.8308 23.6749 15.4606 24.7243C16.0903 25.7737 16.994 26.6318 18.0745 27.2065L22 29.2997L25.9255 27.2072C27.0062 26.6325 27.9099 25.7743 28.5396 24.7248C29.1694 23.6752 29.5014 22.474 29.5 21.25V11.5H14.5Z" fill="black"/>
</svg>
